<svg xmlns="http://www.w3.org/2000/svg" viewBox="0 0 240 56" width="240" height="56" fill="none">
  <!-- Fundisha Official Brand Logo: Navy Stylized F with Teal & Golden-Yellow Leaf/Growth Elements and Fundisha Wordmark -->
  <g id="fundisha-symbol" transform="translate(4, 4)">
    <rect width="48" height="48" rx="12" fill="#0B192C" />
    <path d="M14 12 h19 c1.1 0 2 0.9 2 2 v3.5 c0 1.1-0.9 2-2 2 H21 v6 h10 c1.1 0 2 0.9 2 2 v3.5 c0 1.1-0.9 2-2 2 H21 V36 c0 1.1-0.9 2-2 2 h-3 c-1.1 0-2-0.9-2-2 V14 c0-1.1 0.9-2 2-2 Z" fill="#FFFFFF" />
    <path d="M26 10 C32 10 38 13 38 20 C32 20 26 17 26 10 Z" fill="#14B8A6" />
    <path d="M26 10 C29 13 31 16 32 20" stroke="#0D9488" stroke-width="0.75" stroke-linecap="round" />
    <path d="M24 23.5 C30 23.5 35 26 35 31 C30 31 25 28.5 24 23.5 Z" fill="#F59E0B" />
    <circle cx="36" cy="12" r="2.5" fill="#FBBF24" />
  </g>

  <g id="fundisha-wordmark" transform="translate(62, 10)">
    <text x="0" y="26" font-family="'Plus Jakarta Sans', system-ui, -apple-system, sans-serif" font-weight="800" font-size="24" fill="currentColor" letter-spacing="-0.5px">Fundisha</text>
    <text x="1" y="38" font-family="'Plus Jakarta Sans', system-ui, -apple-system, sans-serif" font-weight="600" font-size="9.5" fill="#0D9488" letter-spacing="1.2px">UGANDA SECONDARY</text>
  </g>
</svg>
